<?xml version="1.0" standalone="no"?>
<!DOCTYPE svg PUBLIC "-//W3C//DTD SVG 20010904//EN"
 "http://www.w3.org/TR/2001/REC-SVG-20010904/DTD/svg10.dtd">
<svg version="1.0" xmlns="http://www.w3.org/2000/svg"
 width="700.000000pt" height="700.000000pt" viewBox="0 0 700.000000 700.000000"
 preserveAspectRatio="xMidYMid meet">
<metadata>
Created by potrace 1.11, written by Peter Selinger 2001-2013
</metadata>
<g transform="translate(0.000000,700.000000) scale(0.100000,-0.100000)"
fill="#000000" stroke="none">
<path d="M2877 6482 l-27 -3 2 -907 3 -906 905 0 906 0 -1 -895 c0 -493 1
-902 3 -908 3 -10 194 -13 908 -13 497 0 904 3 905 8 3 55 0 3615 -4 3619 -6
5 -3552 10 -3600 5z"/>
<path d="M0 2333 l0 -2333 2333 0 2333 0 0 1165 c0 641 -2 1165 -5 1166 -3 0
-528 2 -1166 2 l-1160 2 -2 1145 c0 630 -1 1154 -2 1166 l-1 20 -1165 0 -1165
0 0 -2333z"/>
</g>
</svg>
